<?xml version="1.0"?>
<svg xmlns="http://www.w3.org/2000/svg" xmlns:xlink="http://www.w3.org/1999/xlink" width="72.00000000000001" height="72.00000000000001"><path fill="red" stroke="black" d="M67.54 12.02C67.54 11.52 67.25 11.23 66.89 10.94L63.86 8.35C63.58 8.14 62.93 7.56 62.50 7.56C62.21 7.56 62.14 7.63 61.34 8.42L58.90 11.02L44.50 11.02C44.50 9.07 44.50 8.35 44.57 7.63C45.14 7.34 46.94 6.55 46.94 5.62C46.94 5.11 46.58 5.04 45.94 4.82L40.25 3.53C40.75 6.19 40.75 9.29 40.75 11.02L29.45 11.02C29.38 10.01 29.45 9.36 29.45 7.99C31.18 7.27 31.90 6.98 31.90 5.98C31.90 5.40 31.46 5.26 31.10 5.11L25.34 3.67C25.70 6.12 25.78 10.80 25.78 11.02L17.06 11.02C15.70 11.02 10.51 10.94 5.11 10.51L6.77 13.61C9.50 13.03 13.54 12.74 16.06 12.74L25.70 12.74C25.70 13.39 25.63 16.34 25.63 16.99C25.63 17.50 25.63 18.14 26.86 18.14C27.94 18.14 29.23 17.64 29.45 16.63C29.52 16.27 29.45 13.39 29.45 12.74L40.75 12.74C40.75 13.32 40.61 16.13 40.61 16.78C40.61 17.21 40.61 18.07 41.98 18.07C43.13 18.07 44.14 17.50 44.42 16.70C44.57 16.42 44.50 14.11 44.50 12.74L66.46 12.74C66.96 12.74 67.54 12.67 67.54 12.02ZM66.53 30.53C66.53 30.10 66.10 29.74 65.95 29.59L64.08 27.79C63.72 27.36 63.22 26.93 62.64 26.93C62.14 26.93 61.42 27.72 61.27 27.94L59.83 29.52L43.20 29.52C44.21 27.79 44.78 26.57 45.65 24.55C47.02 24.41 48.82 24.12 48.82 23.04C48.82 22.39 48.38 22.10 48.10 22.03L42.19 19.22C42.26 20.30 42.41 21.46 41.98 22.97C41.90 23.04 38.88 32.90 32.90 41.69L33.34 41.98C36.72 38.81 39.74 35.21 42.19 31.25L60.26 31.25C60.34 32.54 60.41 34.78 60.41 36.86C60.41 47.52 59.04 54.79 57.53 58.75C56.23 62.21 54.86 62.21 52.34 62.21C48.60 62.21 45.79 61.78 44.06 61.56L43.92 61.92C49.61 64.30 50.54 65.30 51.91 68.40C58.97 66.60 60.41 63.00 61.34 59.76C63.94 51.12 64.22 42.05 64.01 32.98C65.74 31.82 66.53 31.32 66.53 30.53ZM25.49 22.18C25.49 21.60 25.20 21.38 24.91 21.24L18.58 18.14C18.65 18.65 18.72 19.22 18.72 19.80C18.72 23.98 15.26 30.60 13.39 34.20C12.24 33.70 11.09 33.12 7.78 32.11L7.78 32.47C9.14 33.77 10.80 35.28 12.38 38.88C13.90 42.34 14.33 43.27 15.70 43.27C17.35 43.27 18.07 41.40 18.07 40.10C18.07 38.45 16.78 36.36 14.26 34.78C20.16 27.43 20.81 26.57 22.75 23.83C25.06 23.47 25.49 23.18 25.49 22.18ZM35.21 53.42C35.21 49.90 29.30 46.73 26.28 45.07L25.85 45.50C26.86 46.73 27.79 48.02 28.80 49.82C25.06 50.33 21.31 50.54 17.57 50.76C20.52 47.59 26.42 40.75 30.60 34.70C33.34 34.27 33.48 33.70 33.48 33.19C33.48 32.69 33.26 32.33 32.90 32.11L26.93 29.30C27.00 35.64 17.86 48.31 15.98 50.83C13.39 50.98 11.02 51.05 9.36 51.05C7.42 51.05 6.41 51.05 4.46 50.54L5.90 56.02C6.19 57.02 6.98 57.02 7.13 57.02C7.85 57.02 8.50 55.37 8.57 55.01C10.15 54.72 11.02 54.50 18.36 53.06L21.74 52.42C25.13 51.77 27.29 51.34 29.30 50.83C29.52 51.41 29.81 51.98 30.17 53.28C30.53 54.43 30.96 56.09 32.83 56.09C34.34 56.09 35.21 54.86 35.21 53.42ZM32.69 59.54C28.37 60.26 24.05 60.77 20.66 61.06L18.14 61.20C14.69 61.49 12.31 61.63 10.66 61.70C8.71 61.78 7.70 61.78 5.76 61.34L7.34 66.82C7.70 67.75 8.50 67.75 8.64 67.75C9.36 67.68 9.94 66.02 10.01 65.66C11.59 65.30 12.46 65.09 21.53 63.36L24.84 62.57C28.51 61.78 30.74 61.42 33.19 60.62ZM51.34 48.10C51.34 45 45.50 41.40 41.26 39.38L41.04 39.60C42.98 41.62 44.35 43.99 45.58 46.44C47.45 50.26 47.66 50.69 49.03 50.69C50.11 50.69 51.34 49.68 51.34 48.10Z"/></svg>